<svg id="Layer_1" data-name="Layer 1" xmlns="http://www.w3.org/2000/svg" viewBox="0 0 512 512"><defs><style>.cls-1{fill:#ff5d5d;}.cls-2{fill:#fff;}</style></defs><title>driver-test-2</title><path class="cls-1" d="M446.11,200.47C446.11,354.78,255.55,502,255.55,502S65,354.78,65,200.47C65,95.28,150.31,10,255.55,10S446.11,95.28,446.11,200.47Z"/><path d="M255.55,512a10,10,0,0,1-6.11-2.09c-2-1.52-49-38.09-96.79-94.34C124.48,382.4,102,349.3,85.84,317.18,65.38,276.51,55,237.24,55,200.47,55,89.93,145,0,255.55,0S456.11,89.93,456.11,200.47c0,36.77-10.38,76-30.84,116.71-16.16,32.12-38.64,65.22-66.82,98.39-47.77,56.25-94.81,92.81-96.78,94.34A10,10,0,0,1,255.55,512Zm0-492C156,20,75,101,75,200.47c0,76.67,50.52,152.26,92.9,202.16a725.79,725.79,0,0,0,87.65,86.53,726.88,726.88,0,0,0,87.9-86.82c42.27-49.84,92.66-125.3,92.66-201.87C436.11,101,355.11,20,255.55,20Z"/><path class="cls-2" d="M398.91,201.9A143.36,143.36,0,1,0,255.55,345.2,143.33,143.33,0,0,0,398.91,201.9Z"/><path d="M255.55,355.2c-84.56,0-153.36-68.77-153.36-153.3S171,48.6,255.55,48.6a153.31,153.31,0,0,1,77.9,21.22,10,10,0,0,1-10.17,17.23A133.21,133.21,0,0,0,255.55,68.6c-73.53,0-133.36,59.8-133.36,133.3S182,335.2,255.55,335.2s133.36-59.8,133.36-133.3a132.22,132.22,0,0,0-11.57-54.4,10,10,0,0,1,18.26-8.17,152.17,152.17,0,0,1,13.31,62.57C408.91,286.43,340.12,355.2,255.55,355.2Z"/><path d="M363.52,117.62a9.94,9.94,0,0,1-2-.19,10.13,10.13,0,0,1-1.87-.58,10.58,10.58,0,0,1-1.73-.91,11.35,11.35,0,0,1-1.52-1.25,9.57,9.57,0,0,1-1.24-1.52,10.15,10.15,0,0,1-.92-1.72,10.58,10.58,0,0,1-.57-1.87,10.84,10.84,0,0,1-.19-2,10.65,10.65,0,0,1,.19-2,10.1,10.1,0,0,1,.57-1.87,9.87,9.87,0,0,1,.92-1.73,9.57,9.57,0,0,1,1.24-1.52A10,10,0,0,1,358,99.31a11.06,11.06,0,0,1,1.73-.92,10.1,10.1,0,0,1,1.87-.57,9.9,9.9,0,0,1,3.91,0,10.1,10.1,0,0,1,1.87.57,10,10,0,0,1,3.25,2.16,9.57,9.57,0,0,1,1.24,1.52,9.87,9.87,0,0,1,.92,1.73,10.1,10.1,0,0,1,.57,1.87,9.85,9.85,0,0,1,.2,2,10,10,0,0,1-.2,2,10.58,10.58,0,0,1-.57,1.87,10.15,10.15,0,0,1-.92,1.72,9.57,9.57,0,0,1-1.24,1.52,11.35,11.35,0,0,1-1.52,1.25,10.58,10.58,0,0,1-1.73.91,10.13,10.13,0,0,1-1.87.58A9.91,9.91,0,0,1,363.52,117.62Z"/><path d="M361.24,512H149.86a10,10,0,0,1,0-20H361.24a10,10,0,0,1,0,20Z"/><path d="M255.55,438.45a10,10,0,0,1-10-10V390.13a10,10,0,0,1,20,0v38.32A10,10,0,0,1,255.55,438.45Z"/><path d="M336.44,250.11h0c-6.56-38.77-53.09-51.5-59.26-52.89a35.83,35.83,0,0,1-44.14,0c-6.17,1.39-51.71,13.92-58.27,52.89h0c-3.38,16.31-2.39,30.23,6,33,5,1.59,13.12-.39,21.87-3.18.2,0,.2,0,.4-.2h.2a13.25,13.25,0,0,0,9.14-12.52v-.6a13.22,13.22,0,0,0-6.76-11.54,52.37,52.37,0,0,1,49.92-35.39,53.37,53.37,0,0,1,50.11,35.59,13.47,13.47,0,0,0-6.76,11.54v.59a13.5,13.5,0,0,0,9.35,12.73h0c8.94,2.59,16.9,4.77,21.67,3.18C338.43,280.74,339.82,266.42,336.44,250.11Z"/><ellipse cx="255.71" cy="150.09" rx="43.15" ry="45.34"/><path d="M269.23,264.83a15.42,15.42,0,0,1,2.19,7.95,15.17,15.17,0,0,1-3.19,9.35,163.12,163.12,0,0,0,27.85-3.78,54.91,54.91,0,0,0,.39-5.77,41.4,41.4,0,0,0-9-25.65Z"/><path d="M241.79,264.83l-18.1-17.7a40,40,0,0,0-9.15,25.65,52.28,52.28,0,0,0,.4,5.77,164.84,164.84,0,0,0,27.84,3.58,15.6,15.6,0,0,1-3.18-9.35A14.81,14.81,0,0,1,241.79,264.83Z"/><path d="M255.51,264.83a8,8,0,1,0,7.95,7.95A8,8,0,0,0,255.51,264.83Z"/><path d="M255.51,231.82a40.15,40.15,0,0,0-26.45,9.74l18.29,17.7a16.16,16.16,0,0,1,8.16-2.19,15.19,15.19,0,0,1,8.35,2.39l18.29-17.7A41.2,41.2,0,0,0,255.51,231.82Z"/></svg>