<svg id="Layer_1" data-name="Layer 1" xmlns="http://www.w3.org/2000/svg" viewBox="0 0 401.11 512"><defs><style>.cls-1{fill:#ff5d5d;}.cls-2{fill:#fff;}</style></defs><title>driver-test</title><path class="cls-1" d="M446.11,200.47C446.11,354.78,255.55,502,255.55,502S65,354.78,65,200.47C65,95.28,150.31,10,255.55,10S446.11,95.28,446.11,200.47Z" transform="translate(-55)"/><path d="M255.55,512a10,10,0,0,1-6.11-2.09c-2-1.52-49-38.09-96.79-94.34C124.48,382.4,102,349.3,85.84,317.18,65.38,276.51,55,237.24,55,200.47,55,89.93,145,0,255.55,0S456.11,89.93,456.11,200.47c0,36.77-10.38,76-30.84,116.71-16.16,32.12-38.64,65.22-66.82,98.39-47.77,56.25-94.81,92.81-96.78,94.34A10,10,0,0,1,255.55,512Zm0-492C156,20,75,101,75,200.47c0,76.67,50.52,152.26,92.9,202.16a725.79,725.79,0,0,0,87.65,86.53,726.88,726.88,0,0,0,87.9-86.82c42.27-49.84,92.66-125.3,92.66-201.87C436.11,101,355.11,20,255.55,20Z" transform="translate(-55)"/><path class="cls-2" d="M398.91,201.9A143.36,143.36,0,1,0,255.55,345.2,143.33,143.33,0,0,0,398.91,201.9Z" transform="translate(-55)"/><path d="M255.55,355.2c-84.56,0-153.36-68.77-153.36-153.3S171,48.6,255.55,48.6a153.31,153.31,0,0,1,77.9,21.22,10,10,0,0,1-10.17,17.23A133.21,133.21,0,0,0,255.55,68.6c-73.53,0-133.36,59.8-133.36,133.3S182,335.2,255.55,335.2s133.36-59.8,133.36-133.3a132.22,132.22,0,0,0-11.57-54.4,10,10,0,0,1,18.26-8.17,152.17,152.17,0,0,1,13.31,62.57C408.91,286.43,340.12,355.2,255.55,355.2Z" transform="translate(-55)"/><path d="M363.52,117.62a9.94,9.94,0,0,1-2-.19,10.13,10.13,0,0,1-1.87-.58,10.58,10.58,0,0,1-1.73-.91,11.35,11.35,0,0,1-1.52-1.25,9.57,9.57,0,0,1-1.24-1.52,10.15,10.15,0,0,1-.92-1.72,10.58,10.58,0,0,1-.57-1.87,10.84,10.84,0,0,1-.19-2,10.65,10.65,0,0,1,.19-2,10.1,10.1,0,0,1,.57-1.87,9.87,9.87,0,0,1,.92-1.73,9.57,9.57,0,0,1,1.24-1.52A10,10,0,0,1,358,99.31a11.06,11.06,0,0,1,1.73-.92,10.1,10.1,0,0,1,1.87-.57,9.9,9.9,0,0,1,3.91,0,10.1,10.1,0,0,1,1.87.57,10,10,0,0,1,3.25,2.16,9.57,9.57,0,0,1,1.24,1.52,9.87,9.87,0,0,1,.92,1.73,10.1,10.1,0,0,1,.57,1.87,9.85,9.85,0,0,1,.2,2,10,10,0,0,1-.2,2,10.58,10.58,0,0,1-.57,1.87,10.15,10.15,0,0,1-.92,1.72,9.57,9.57,0,0,1-1.24,1.52,11.35,11.35,0,0,1-1.52,1.25,10.58,10.58,0,0,1-1.73.91,10.13,10.13,0,0,1-1.87.58A9.91,9.91,0,0,1,363.52,117.62Z" transform="translate(-55)"/><path d="M361.24,512H149.86a10,10,0,0,1,0-20H361.24a10,10,0,0,1,0,20Z" transform="translate(-55)"/><path d="M255.55,438.45a10,10,0,0,1-10-10V390.13a10,10,0,0,1,20,0v38.32A10,10,0,0,1,255.55,438.45Z" transform="translate(-55)"/><path d="M332.94,254.33h0c-6.28-37.1-50.8-49.28-56.69-50.61a34.29,34.29,0,0,1-42.24,0c-5.9,1.33-49.46,13.32-55.74,50.61h0C175,269.93,176,283.25,184,285.91c4.75,1.52,12.55-.38,20.92-3,.19,0,.19,0,.38-.2h.19a12.67,12.67,0,0,0,8.76-12v-.57a12.67,12.67,0,0,0-6.47-11,50.11,50.11,0,0,1,47.75-33.86,51.07,51.07,0,0,1,47.94,34,12.9,12.9,0,0,0-6.47,11v.57a12.93,12.93,0,0,0,8.95,12.18h0c8.56,2.47,16.17,4.56,20.73,3C334.84,283.63,336.18,269.93,332.94,254.33Z" transform="translate(-55)"/><path d="M268.64,268.41a14.72,14.72,0,0,1,2.09,7.61,14.53,14.53,0,0,1-3,8.94,154.73,154.73,0,0,0,26.63-3.62,50.19,50.19,0,0,0,.38-5.51,39.61,39.61,0,0,0-8.56-24.55Z" transform="translate(-55)"/><path d="M242.38,268.41l-17.31-16.94A38.27,38.27,0,0,0,216.32,276a50.19,50.19,0,0,0,.38,5.51A156.46,156.46,0,0,0,243.33,285a15,15,0,0,1-3-8.94A14.23,14.23,0,0,1,242.38,268.41Z" transform="translate(-55)"/><path d="M255.51,268.41a7.61,7.61,0,1,0,7.61,7.61A7.63,7.63,0,0,0,255.51,268.41Z" transform="translate(-55)"/><path d="M255.51,236.82a38.38,38.38,0,0,0-25.3,9.33l17.5,16.93a15.44,15.44,0,0,1,7.8-2.09,14.52,14.52,0,0,1,8,2.28L281,246.34A39.42,39.42,0,0,0,255.51,236.82Z" transform="translate(-55)"/><path d="M290.36,157.39a9.07,9.07,0,0,0-1.45-1,38.16,38.16,0,0,0-2.59-10.09c-1.59,2.74-4.47,5.19-8.08,7.21.58,5.62,1.16,11.67,1.16,11.67a1.48,1.48,0,0,0,1.44,1.59h3.89c.72,0,1.44-3.6,1.44-4.47a3.18,3.18,0,0,0,.87-.14c.43,1,.72,2.74.72,6.34,0,6.49-3.46,7.64-3.75,7.64a3,3,0,0,0-2.16,2.17c-2.6,13.69-13.7,23.64-26.68,23.64-12.83,0-23.93-9.95-26.53-23.64a3.24,3.24,0,0,0-2.16-2.17c-.29-.14-3.75-1.15-3.75-7.64a22.25,22.25,0,0,1,.72-6.34,4.77,4.77,0,0,0,1,.14c0,.87.58,4.47,1.44,4.47h3.9a1.48,1.48,0,0,0,1.44-1.59s.43-6,1-11.67a20,20,0,0,1-8.08-7.21,33.61,33.61,0,0,0-2.45,10.09c-.43.29-1,.43-1.3.86-2.16,2-3,5.48-3,11.4,0,7.93,3.89,11.1,6.34,12.4a34.66,34.66,0,0,0,13.41,20.42,5.94,5.94,0,0,1,1,.83l0,0a6.42,6.42,0,0,1,1.37.88c.08.05.16.08.23.13a6,6,0,0,1,1.47.77,4.48,4.48,0,0,1,.58.29,6.16,6.16,0,0,1,1.09.42,30.78,30.78,0,0,0,12.37,2.77,31.18,31.18,0,0,0,13-3,7.32,7.32,0,0,1,.69-.33,6.47,6.47,0,0,1,2.32-1.2,6.26,6.26,0,0,1,1.93-1.13l0-.08A35.73,35.73,0,0,0,287,181c2.31-1.3,6.2-4.47,6.2-12.4C293.24,162.87,292.23,159.26,290.36,157.39Z" transform="translate(-55)"/><path d="M284.44,141.38a197.44,197.44,0,0,0-58.25,0c1,7.65,13.7,13.56,29.13,13.56C270.75,154.79,283.44,148.88,284.44,141.38Z" transform="translate(-55)"/><path d="M225.33,137.78a209.27,209.27,0,0,1,60,0c5.48-2.88,8.94-6.63,8.94-10.82.14-9.51-17.3-17.15-38.93-17.15s-39.08,7.64-39.08,17.15C216.24,131.15,219.7,134.9,225.33,137.78Z" transform="translate(-55)"/></svg>