<svg height="512pt" viewBox="-55 0 512 512" width="512pt" xmlns="http://www.w3.org/2000/svg"><path d="m391.105469 200.46875c0 154.308594-190.550781 301.53125-190.550781 301.53125s-190.554688-147.222656-190.554688-301.53125c0-105.191406 85.3125-190.46875 190.554688-190.46875 105.238281 0 190.550781 85.277344 190.550781 190.46875zm0 0" fill="#ff5d5d"/><path d="m200.554688 512c-2.160157 0-4.316407-.695312-6.117188-2.085938-1.976562-1.527343-49.015625-38.09375-96.785156-94.339843-28.171875-33.171875-50.648438-66.277344-66.8125-98.394531-20.464844-40.671876-30.839844-79.9375-30.839844-116.710938 0-110.539062 89.96875-200.46875 200.554688-200.46875 110.585937 0 200.550781 89.929688 200.550781 200.46875 0 36.773438-10.375 76.039062-30.839844 116.707031-16.160156 32.121094-38.640625 65.222657-66.8125 98.398438-47.769531 56.246093-94.808594 92.808593-96.785156 94.339843-1.800781 1.390626-3.957031 2.085938-6.113281 2.085938zm0-492c-99.558594 0-180.554688 80.957031-180.554688 180.46875 0 76.675781 50.519531 152.257812 92.898438 202.160156 36.574218 43.0625 73.429687 74.816406 87.652343 86.527344 14.261719-11.75 51.304688-43.671875 87.902344-86.820312 42.269531-49.832032 92.652344-125.300782 92.652344-201.867188 0-99.511719-80.996094-180.46875-180.550781-180.46875zm0 0"/><path d="m343.914062 201.898438c0-79.140626-64.183593-143.296876-143.359374-143.296876-79.179688 0-143.363282 64.15625-143.363282 143.296876 0 79.144531 64.183594 143.300781 143.363282 143.300781 79.175781 0 143.359374-64.15625 143.359374-143.300781zm0 0" fill="#fff"/><path d="m200.554688 355.199219c-84.566407 0-153.363282-68.769531-153.363282-153.296875 0-84.53125 68.796875-153.300782 153.363282-153.300782 27.449218 0 54.386718 7.339844 77.898437 21.222657 4.753906 2.808593 6.332031 8.941406 3.523437 13.695312-2.804687 4.757813-8.9375 6.335938-13.695312 3.527344-20.429688-12.066406-43.851562-18.445313-67.726562-18.445313-73.539063 0-133.363282 59.796876-133.363282 133.300782 0 73.5 59.824219 133.296875 133.363282 133.296875 73.535156 0 133.359374-59.796875 133.359374-133.300781 0-18.949219-3.890624-37.25-11.570312-54.394532-2.257812-5.039062 0-10.957031 5.039062-13.214844 5.042969-2.257812 10.957032 0 13.214844 5.042969 8.835938 19.730469 13.316406 40.78125 13.316406 62.570313 0 84.527344-68.796874 153.296875-153.359374 153.296875zm0 0"/><path d="m308.523438 117.621094c-.660157 0-1.308594-.0625-1.960938-.191406-.640625-.128907-1.269531-.328126-1.871094-.578126-.597656-.25-1.179687-.550781-1.726562-.910156-.539063-.371094-1.0625-.792968-1.523438-1.25-.457031-.460937-.878906-.972656-1.238281-1.519531-.359375-.542969-.671875-1.121094-.921875-1.722656-.25-.609375-.4375-1.238281-.566406-1.871094-.128906-.648437-.191406-1.308594-.191406-1.957031 0-.652344.0625-1.3125.191406-1.949219.128906-.640625.316406-1.273437.566406-1.871094.25-.609375.5625-1.191406.921875-1.730469.359375-.550781.78125-1.058593 1.238281-1.519531.460938-.460937.980469-.878906 1.523438-1.242187.550781-.359375 1.128906-.667969 1.726562-.917969.601563-.25 1.230469-.441406 1.871094-.570313 1.289062-.261718 2.621094-.261718 3.910156 0 .640625.128907 1.269532.320313 1.871094.570313.597656.25 1.179688.558594 1.726562.917969.542969.363281 1.050782.78125 1.523438 1.242187.460938.460938.878906.96875 1.238281 1.519531.359375.539063.671875 1.121094.921875 1.730469.25.597657.4375 1.230469.566406 1.871094.132813.636719.203126 1.296875.203126 1.949219 0 .648437-.070313 1.308594-.203126 1.957031-.128906.632813-.316406 1.261719-.566406 1.871094-.25.601562-.5625 1.179687-.921875 1.722656-.359375.546875-.777343 1.058594-1.238281 1.519531-.472656.457032-.980469.878906-1.523438 1.25-.546874.359375-1.128906.660156-1.726562.910156-.601562.25-1.230469.449219-1.871094.578126-.648437.128906-1.300781.191406-1.949218.191406zm0 0"/><path d="m306.242188 512h-211.378907c-5.519531 0-10-4.476562-10-10s4.480469-10 10-10h211.375c5.523438 0 10 4.476562 10 10 .003907 5.523438-4.476562 10-9.996093 10zm0 0"/><path d="m260.507812 192.082031h-119.90625v-42.574219c0-11.136718 9.027344-20.167968 20.167969-20.167968h79.570313c11.136718 0 20.167968 9.03125 20.167968 20.167968zm0 0" fill="#c2e8f7"/><path d="m278.4375 254.828125h-155.769531v-47.894531c0-8.203125 6.648437-14.847656 14.847656-14.847656h126.074219c8.199218 0 14.847656 6.644531 14.847656 14.847656zm0 0" fill="#6d6f8d"/><path d="m170.71875 233.453125h-12.886719c-5.523437 0-10-4.476563-10-10 0-5.519531 4.476563-10 10-10h12.886719c5.523438 0 10 4.480469 10 10 0 5.523437-4.476562 10-10 10zm0 0"/><path d="m243.273438 233.453125h-12.886719c-5.523438 0-10-4.476563-10-10 0-5.519531 4.476562-10 10-10h12.886719c5.523437 0 10 4.480469 10 10 0 5.523437-4.476563 10-10 10zm0 0"/><path d="m270.507812 183.0625v-33.554688c0-16.632812-13.535156-30.167968-30.171874-30.167968h-79.566407c-16.636719 0-30.167969 13.535156-30.167969 30.167968v33.554688c-10.347656 3.003906-17.933593 12.566406-17.933593 23.871094v47.894531c0 5.523437 4.476562 10 10 10h14.097656v8.480469c0 5.523437 4.476563 10 10 10 5.519531 0 10-4.476563 10-10v-8.480469h87.578125v8.480469c0 5.523437 4.476562 10 10 10 5.519531 0 10-4.476563 10-10v-8.480469h14.097656c5.519532 0 10-4.476563 10-10v-47.894531c-.003906-11.304688-7.589844-20.867188-17.933594-23.871094zm-119.910156-33.554688c0-5.605468 4.5625-10.167968 10.171875-10.167968h79.566407c5.605468 0 10.167968 4.5625 10.167968 10.167968v32.574219h-99.90625zm117.839844 95.320313h-135.769531v-37.894531c0-2.675782 2.175781-4.851563 4.847656-4.851563h126.074219c2.675781 0 4.847656 2.175781 4.847656 4.851563zm0 0"/><path d="m200.554688 438.449219c-5.523438 0-10-4.476563-10-10v-38.324219c0-5.523438 4.476562-10 10-10 5.519531 0 10 4.476562 10 10v38.324219c0 5.523437-4.480469 10-10 10zm0 0"/></svg>