<svg id="Layer_1" data-name="Layer 1" xmlns="http://www.w3.org/2000/svg" viewBox="0 0 401.11 512"><defs><style>.cls-1{fill:#ff5d5d;}.cls-2{fill:#fff;}</style></defs><title>trip-B-merah</title><path class="cls-1" d="M391.11,200.47C391.11,354.78,200.55,502,200.55,502S10,354.78,10,200.47C10,95.28,95.31,10,200.55,10S391.11,95.28,391.11,200.47Z"/><path d="M200.55,512a10,10,0,0,1-6.11-2.09c-2-1.52-49-38.09-96.79-94.34C69.48,382.4,47,349.3,30.84,317.18,10.38,276.51,0,237.24,0,200.47,0,89.93,90,0,200.55,0S401.11,89.93,401.11,200.47c0,36.77-10.38,76-30.84,116.71-16.16,32.12-38.64,65.22-66.82,98.39-47.77,56.25-94.81,92.81-96.78,94.34A10,10,0,0,1,200.55,512Zm0-492C101,20,20,101,20,200.47c0,76.67,50.52,152.26,92.9,202.16a725.84,725.84,0,0,0,87.65,86.53,726.66,726.66,0,0,0,87.9-86.82c42.27-49.84,92.66-125.3,92.66-201.87C381.11,101,300.11,20,200.55,20Z"/><path class="cls-2" d="M343.91,201.9A143.36,143.36,0,1,0,200.49,345.2h.06A143.33,143.33,0,0,0,343.91,201.9Z"/><path d="M200.55,355.2C116,355.2,47.19,286.43,47.19,201.9S116,48.6,200.55,48.6a153.29,153.29,0,0,1,77.9,21.22,10,10,0,1,1-10.17,17.23A133.12,133.12,0,0,0,200.55,68.6C127,68.6,67.19,128.4,67.19,201.9S127,335.2,200.55,335.2s133.36-59.8,133.36-133.3a132.28,132.28,0,0,0-11.57-54.4,10,10,0,0,1,18.26-8.17,152.14,152.14,0,0,1,13.31,62.57C353.91,286.43,285.12,355.2,200.55,355.2Z"/><path d="M308.52,117.62a10.34,10.34,0,0,1-2-.19,10.13,10.13,0,0,1-1.87-.58,10.58,10.58,0,0,1-1.73-.91,11.35,11.35,0,0,1-1.52-1.25,9.57,9.57,0,0,1-1.24-1.52,10,10,0,0,1-1.49-3.59,10.76,10.76,0,0,1,0-4,10.1,10.1,0,0,1,.57-1.87,9.87,9.87,0,0,1,.92-1.73A7.36,7.36,0,0,1,303,99.31a10.63,10.63,0,0,1,1.73-.92,10.1,10.1,0,0,1,1.87-.57,9.9,9.9,0,0,1,3.91,0,10.1,10.1,0,0,1,1.87.57,10,10,0,0,1,3.25,2.16,9.57,9.57,0,0,1,1.24,1.52,9.87,9.87,0,0,1,.92,1.73,10.1,10.1,0,0,1,.57,1.87,10.09,10.09,0,0,1-1.49,7.59,9.57,9.57,0,0,1-1.24,1.52,11.35,11.35,0,0,1-1.52,1.25,10.58,10.58,0,0,1-1.73.91,7.89,7.89,0,0,1-3.86.68Z"/><path d="M306.24,512H94.86a10,10,0,0,1,0-20H306.24a10,10,0,0,1,0,20Z"/><path d="M200.55,438.45a10,10,0,0,1-10-10V390.13a10,10,0,0,1,20,0v38.32A10,10,0,0,1,200.55,438.45Z"/><path d="M203.89,265.69H160.58q-9.37,0-13.39-4.2t-4-13.39V141.56q0-9.37,4.11-13.49T160.58,124H206.5a106.9,106.9,0,0,1,17.6,1.26,37.68,37.68,0,0,1,13.34,4.83,35,35,0,0,1,8.89,7.59,33.45,33.45,0,0,1,5.9,10.15,33.88,33.88,0,0,1,2,11.75q0,21.27-21.27,31.13,27.94,8.89,27.94,34.61a38.93,38.93,0,0,1-6.09,21.42,36.5,36.5,0,0,1-16.43,14.06,58,58,0,0,1-14.89,3.82A151,151,0,0,1,203.89,265.69Zm-32-120.17v36.64h26.3q10.73,0,16.58-2a15.77,15.77,0,0,0,8.94-7.73,17.5,17.5,0,0,0,2.42-9.09q0-10.72-7.64-14.26t-23.3-3.53Zm29.88,57.24H171.89v41.37h30.84q29.1,0,29.1-21,0-10.74-7.54-15.57t-22.52-4.8Z"/></svg>