<?xml version="1.0" encoding="UTF-8"?>
<svg id="Layer_1" xmlns="http://www.w3.org/2000/svg" version="1.1" xmlns:xlink="http://www.w3.org/1999/xlink" viewBox="0 0 1080 535.99">
  <!-- Generator: Adobe Illustrator 29.7.1, SVG Export Plug-In . SVG Version: 2.1.1 Build 8)  -->
  <defs>
    <style>
      .st0 {
        font-family: OpenSans-Light, 'Open Sans';
        font-size: 48.65px;
        font-weight: 300;
        letter-spacing: .1em;
      }

      .st1 {
        fill: #46b4c6;
      }

      .st2 {
        fill: url(#linear-gradient2);
      }

      .st2, .st3, .st4 {
        opacity: .53;
      }

      .st5 {
        fill: url(#linear-gradient1);
      }

      .st3 {
        fill: url(#linear-gradient4);
      }

      .st6 {
        fill: #1b1836;
      }

      .st7 {
        fill: url(#linear-gradient);
      }

      .st4 {
        fill: url(#linear-gradient3);
      }
    </style>
    <linearGradient id="linear-gradient" x1="148.35" y1="254.64" x2="236.63" y2="166.37" gradientUnits="userSpaceOnUse">
      <stop offset="0" stop-color="#46b4c6" stop-opacity="0"/>
      <stop offset=".13" stop-color="#42acbc" stop-opacity=".12"/>
      <stop offset=".38" stop-color="#3998a4" stop-opacity=".44"/>
      <stop offset=".73" stop-color="#2a787d" stop-opacity=".95"/>
      <stop offset=".76" stop-color="#29767a"/>
    </linearGradient>
    <linearGradient id="linear-gradient1" x1="361.64" y1="236.95" x2="361.64" y2="178" gradientUnits="userSpaceOnUse">
      <stop offset="0" stop-color="#46b4c6" stop-opacity="0"/>
      <stop offset=".14" stop-color="#44afc0" stop-opacity=".07"/>
      <stop offset=".37" stop-color="#3ea4b2" stop-opacity=".25"/>
      <stop offset=".65" stop-color="#36919c" stop-opacity=".55"/>
      <stop offset=".97" stop-color="#2a787c" stop-opacity=".96"/>
      <stop offset="1" stop-color="#29767a"/>
    </linearGradient>
    <linearGradient id="linear-gradient2" x1="546.38" y1="238.51" x2="546.38" y2="179.55" gradientUnits="userSpaceOnUse">
      <stop offset="0" stop-color="#606060" stop-opacity="0"/>
      <stop offset=".21" stop-color="#5f5f61" stop-opacity=".02"/>
      <stop offset=".36" stop-color="#5f5e65" stop-opacity=".07"/>
      <stop offset=".5" stop-color="#5d5d6c" stop-opacity=".16"/>
      <stop offset=".62" stop-color="#5c5a76" stop-opacity=".3"/>
      <stop offset=".74" stop-color="#595783" stop-opacity=".46"/>
      <stop offset=".86" stop-color="#575393" stop-opacity=".67"/>
      <stop offset=".97" stop-color="#544fa6" stop-opacity=".91"/>
      <stop offset="1" stop-color="#534ead"/>
    </linearGradient>
    <linearGradient id="linear-gradient3" x1="649.86" y1="257.11" x2="703.38" y2="261.79" gradientUnits="userSpaceOnUse">
      <stop offset="0" stop-color="#534ead"/>
      <stop offset=".05" stop-color="#6c67b9" stop-opacity=".85"/>
      <stop offset=".15" stop-color="#938fcb" stop-opacity=".63"/>
      <stop offset=".25" stop-color="#b4b2db" stop-opacity=".43"/>
      <stop offset=".36" stop-color="#cfcee8" stop-opacity=".27"/>
      <stop offset=".48" stop-color="#e4e3f2" stop-opacity=".15"/>
      <stop offset=".61" stop-color="#f3f3f9" stop-opacity=".07"/>
      <stop offset=".76" stop-color="#fcfcfd" stop-opacity=".02"/>
      <stop offset="1" stop-color="#fff" stop-opacity="0"/>
    </linearGradient>
    <linearGradient id="linear-gradient4" x1="850.28" y1="237.21" x2="876.78" y2="283.12" gradientUnits="userSpaceOnUse">
      <stop offset="0" stop-color="#534ead"/>
      <stop offset=".05" stop-color="#544fa5" stop-opacity=".9"/>
      <stop offset=".24" stop-color="#595687" stop-opacity=".52"/>
      <stop offset=".4" stop-color="#5c5b72" stop-opacity=".24"/>
      <stop offset=".53" stop-color="#5f5e64" stop-opacity=".06"/>
      <stop offset=".6" stop-color="#606060" stop-opacity="0"/>
    </linearGradient>
  </defs>
  <text class="st0" transform="translate(147.83 379.39)"><tspan x="0" y="0">optimalisasi monitoring pajak</tspan></text>
  <path class="st1" d="M259,143.99c-89.19-7-104.72,72.51-104.72,72.51-7.03,41.62,14.45,64.51,30.84,77.35,21.27,16.66,91.04,26.32,126.07-32.75,35.37-59.64-12.05-113.97-52.19-117.12ZM228.85,273.42c-9.1-.58-30.05-12.86-30.05-42.77,0-15.37,9.87-42.12,32.46-52.21,16.11-7.19,45.63,1.32,44.97,45.85-.44,30.08-23.47,50.67-47.38,49.14Z"/>
  <path class="st1" d="M432.41,144.8c-1.57,0-88.47-.11-88.47-.11l-13.86,160.36,45.66.23,4.32-58.48h41.66s50.87-4.18,54.26-51.13c3.15-43.6-42-50.87-43.56-50.87ZM431.05,196.66c-2.19,14.58-16.14,16.93-16.14,16.93l-31.66.16,3.92-35.42s28.68.31,29.62.47c.94.16,16.46,3.29,14.26,17.87Z"/>
  <polygon class="st6" points="483.14 144.57 480.48 179.38 525.92 179.38 515.06 305.18 560.68 305.18 571.94 179.88 617.01 179.6 620.31 144.43 483.14 144.57"/>
  <path class="st6" d="M715.9,144.31h-64.04l-62.3,160.38h47.88l10.67-27.69h48.75l4.9,28.27,48.17-.29-34.04-160.66ZM659.37,241.8l20.19-57.98,11.25,58.27-31.44-.29Z"/>
  <path class="st6" d="M751.73,305.38l63.81-81.24-49.49-79.2h55l24.27,40.2,31.1-40.77h55.76l-61.86,81.26,48.17,80.2h-56.25l-23.68-40.64-30.14,40.64s-56.69-1.19-56.69-.46Z"/>
  <path class="st7" d="M198.8,230.98c0-15.37,9.87-42.12,32.46-52.21,4.41-1.97,9.82-2.75,15.34-1.95l.18-.3s-68.32-20.96-93.12,44.59c-2.5,19.85,1.62,35.23,8.35,47.18l37.84-26.28c-.67-3.38-1.05-7.05-1.05-11.04Z"/>
  <polygon class="st5" points="387.19 178.34 341.05 178 336.09 236.95 380.66 236.89 387.19 178.34"/>
  <polygon class="st2" points="571.94 179.88 525.78 179.55 520.82 238.51 566.89 238.45 571.94 179.88"/>
  <polygon class="st4" points="659.37 241.8 648.12 276.99 696.87 276.99 705.12 241.91 659.37 241.8"/>
  <polygon class="st3" points="838.56 265.2 870.32 225.64 897.89 270.94 854.34 292.97 838.56 265.2"/>
</svg>