<svg xmlns="http://www.w3.org/2000/svg" height="512pt" version="1.1" viewBox="-38 0 512 512.00101" width="512pt">
<g id="surface1">
<path d="M 69.011719 356.832031 C -13.003906 276.917969 -13.003906 147.351562 69.011719 67.4375 C 151.027344 -12.480469 283.996094 -12.480469 366.011719 67.4375 C 448.027344 147.351562 448.027344 276.917969 366.011719 356.832031 L 217.511719 501.527344 Z M 69.011719 356.832031 " style=" stroke:none;fill-rule:nonzero;fill:rgb(97.647059%,51.372549%,9.411765%);fill-opacity:1;" />
<path d="M 330.519531 153.007812 L 288.515625 153.007812 L 288.515625 183.011719 L 330.519531 183.011719 C 338.804688 183.011719 345.519531 176.292969 345.519531 168.007812 C 345.519531 159.726562 338.804688 153.007812 330.519531 153.007812 Z M 330.519531 153.007812 " style=" stroke:none;fill-rule:nonzero;fill:rgb(24.313725%,19.215686%,23.921569%);fill-opacity:1;" />
<path d="M 104.507812 153.007812 C 96.222656 153.007812 89.503906 159.726562 89.503906 168.007812 C 89.503906 176.292969 96.222656 183.011719 104.507812 183.011719 L 146.507812 183.011719 L 146.507812 153.007812 Z M 104.507812 153.007812 " style=" stroke:none;fill-rule:nonzero;fill:rgb(24.313725%,19.215686%,23.921569%);fill-opacity:1;" />
<path d="M 277.515625 115.007812 L 157.507812 115.007812 L 137.507812 183.011719 L 297.515625 183.011719 Z M 277.515625 115.007812 " style=" stroke:none;fill-rule:nonzero;fill:rgb(43.921569%,64.705882%,95.294118%);fill-opacity:1;" />
<path d="M 332.519531 215.640625 L 332.519531 268.015625 L 102.507812 268.015625 L 102.507812 215.640625 C 102.507812 202.242188 111.386719 190.46875 124.265625 186.789062 L 137.507812 183.011719 L 297.515625 183.011719 L 310.757812 186.789062 C 323.636719 190.46875 332.519531 202.242188 332.519531 215.640625 Z M 332.519531 215.640625 " style=" stroke:none;fill-rule:nonzero;fill:rgb(24.313725%,19.215686%,23.921569%);fill-opacity:1;" />
<path d="M 148.507812 183.011719 L 148.507812 202.011719 C 148.507812 218.582031 135.078125 232.011719 118.507812 232.011719 L 102.507812 232.011719 L 102.507812 215.640625 C 102.507812 202.242188 111.386719 190.46875 124.265625 186.789062 L 137.507812 183.011719 Z M 148.507812 183.011719 " style=" stroke:none;fill-rule:nonzero;fill:rgb(98.823529%,74.509804%,34.117647%);fill-opacity:1;" />
<path d="M 332.519531 215.640625 L 332.519531 232.011719 L 317.519531 232.011719 C 300.945312 232.011719 287.515625 218.582031 287.515625 202.011719 L 287.515625 183.011719 L 297.515625 183.011719 L 310.757812 186.789062 C 323.636719 190.46875 332.519531 202.242188 332.519531 215.640625 Z M 332.519531 215.640625 " style=" stroke:none;fill-rule:nonzero;fill:rgb(98.823529%,74.509804%,34.117647%);fill-opacity:1;" />
<path d="M 145.007812 312.515625 C 132.582031 312.515625 122.507812 302.441406 122.507812 290.015625 L 122.507812 268.015625 L 167.507812 268.015625 L 167.507812 290.015625 C 167.507812 302.441406 157.433594 312.515625 145.007812 312.515625 Z M 145.007812 312.515625 " style=" stroke:none;fill-rule:nonzero;fill:rgb(24.313725%,19.215686%,23.921569%);fill-opacity:1;" />
<path d="M 290.015625 312.515625 C 277.589844 312.515625 267.515625 302.441406 267.515625 290.015625 L 267.515625 268.015625 L 312.519531 268.015625 L 312.519531 290.015625 C 312.519531 302.441406 302.441406 312.515625 290.015625 312.515625 Z M 290.015625 312.515625 " style=" stroke:none;fill-rule:nonzero;fill:rgb(24.313725%,19.215686%,23.921569%);fill-opacity:1;" />
<path d="M 122.507812 268.015625 L 167.507812 268.015625 L 167.507812 288.015625 L 122.507812 288.015625 Z M 122.507812 268.015625 " style=" stroke:none;fill-rule:nonzero;fill:rgb(6.666667%,6.666667%,6.666667%);fill-opacity:1;" />
<path d="M 267.515625 268.015625 L 312.519531 268.015625 L 312.519531 288.015625 L 267.515625 288.015625 Z M 267.515625 268.015625 " style=" stroke:none;fill-rule:nonzero;fill:rgb(20%,14.509804%,20%);fill-opacity:1;" />
<path d="M 371.246094 62.0625 C 330.171875 22.042969 275.574219 0 217.511719 0 C 159.449219 0 104.851562 22.042969 63.777344 62.0625 C 22.652344 102.136719 0 155.433594 0 212.132812 C 0 268.832031 22.648438 322.128906 63.777344 362.203125 L 217.511719 512 L 371.246094 362.203125 C 412.375 322.128906 435.023438 268.832031 435.023438 212.132812 C 435.023438 155.433594 412.375 102.136719 371.246094 62.0625 Z M 360.777344 351.457031 L 217.511719 491.054688 L 74.246094 351.457031 C 36.042969 314.230469 15 264.75 15 212.132812 C 15 159.515625 36.042969 110.035156 74.246094 72.808594 C 113.746094 34.320312 165.628906 15.078125 217.511719 15.078125 C 269.394531 15.078125 321.28125 34.320312 360.777344 72.808594 C 398.984375 110.035156 420.023438 159.515625 420.023438 212.132812 C 420.023438 264.75 398.984375 314.230469 360.777344 351.457031 Z M 360.777344 351.457031 " style=" stroke:none;fill-rule:nonzero;fill:rgb(0%,0%,0%);fill-opacity:1;" />
<path d="M 330.519531 145.507812 L 294.304688 145.507812 L 283.128906 107.507812 L 151.898438 107.507812 L 140.71875 145.507812 L 104.503906 145.507812 C 92.097656 145.507812 82.003906 155.601562 82.003906 168.007812 C 82.003906 180.417969 92.097656 190.511719 104.503906 190.511719 L 104.726562 190.511719 C 98.640625 197.253906 95.003906 206.148438 95.003906 215.640625 L 95.003906 275.515625 L 115.003906 275.515625 L 115.003906 290.015625 C 115.003906 306.558594 128.464844 320.015625 145.007812 320.015625 C 161.550781 320.015625 175.007812 306.558594 175.007812 290.015625 L 175.007812 275.515625 L 260.015625 275.515625 L 260.015625 290.015625 C 260.015625 306.558594 273.472656 320.015625 290.015625 320.015625 C 306.558594 320.015625 320.015625 306.558594 320.015625 290.015625 L 320.015625 275.515625 L 340.019531 275.515625 L 340.019531 215.640625 C 340.019531 206.148438 336.382812 197.257812 330.296875 190.511719 L 330.519531 190.511719 C 342.925781 190.511719 353.019531 180.417969 353.019531 168.007812 C 353.019531 155.601562 342.925781 145.507812 330.519531 145.507812 Z M 163.121094 122.507812 L 271.902344 122.507812 L 287.492188 175.507812 L 147.53125 175.507812 Z M 141.007812 190.511719 L 141.007812 202.011719 C 141.007812 214.417969 130.914062 224.511719 118.507812 224.511719 L 110.007812 224.511719 L 110.007812 215.640625 C 110.007812 205.644531 116.71875 196.746094 126.324219 194.003906 L 138.558594 190.511719 Z M 104.507812 175.507812 C 100.371094 175.507812 97.003906 172.144531 97.003906 168.007812 C 97.003906 163.871094 100.371094 160.507812 104.507812 160.507812 L 136.308594 160.507812 L 131.894531 175.507812 Z M 160.007812 290.015625 C 160.007812 298.289062 153.28125 305.015625 145.007812 305.015625 C 136.738281 305.015625 130.007812 298.289062 130.007812 290.015625 L 130.007812 275.515625 L 160.007812 275.515625 Z M 305.015625 290.015625 C 305.015625 298.289062 298.289062 305.015625 290.015625 305.015625 C 281.746094 305.015625 275.015625 298.289062 275.015625 290.015625 L 275.015625 275.515625 L 305.015625 275.515625 Z M 325.019531 260.515625 L 110.007812 260.515625 L 110.007812 239.511719 L 118.507812 239.511719 C 139.1875 239.511719 156.007812 222.691406 156.007812 202.011719 L 156.007812 190.511719 L 280.015625 190.511719 L 280.015625 202.011719 C 280.015625 222.691406 296.839844 239.511719 317.519531 239.511719 L 325.019531 239.511719 Z M 325.019531 224.511719 L 317.519531 224.511719 C 305.109375 224.511719 295.015625 214.417969 295.015625 202.011719 L 295.015625 190.511719 L 296.464844 190.511719 L 308.695312 194 C 318.304688 196.746094 325.015625 205.644531 325.015625 215.640625 L 325.015625 224.511719 Z M 330.519531 175.507812 L 303.128906 175.507812 L 298.71875 160.507812 L 330.519531 160.507812 C 334.65625 160.507812 338.019531 163.871094 338.019531 168.007812 C 338.019531 172.144531 334.65625 175.507812 330.519531 175.507812 Z M 330.519531 175.507812 " style=" stroke:none;fill-rule:nonzero;fill:rgb(0%,0%,0%);fill-opacity:1;" />
<path d="M 95.183594 94.296875 L 84.714844 83.550781 C 104.863281 63.917969 128.550781 49.359375 155.117188 40.28125 L 159.96875 54.476562 C 135.523438 62.828125 113.726562 76.226562 95.183594 94.296875 Z M 173.753906 50.390625 L 170.085938 35.84375 C 175.101562 34.582031 180.238281 33.507812 185.359375 32.652344 L 187.828125 47.449219 C 183.109375 48.234375 178.375 49.226562 173.753906 50.390625 Z M 202.101562 45.65625 L 200.832031 30.707031 C 205.972656 30.269531 211.210938 30.035156 216.402344 30.003906 L 216.488281 45.003906 C 211.691406 45.03125 206.851562 45.25 202.101562 45.65625 Z M 202.101562 45.65625 " style=" stroke:none;fill-rule:nonzero;fill:rgb(100%,100%,100%);fill-opacity:1;" />
<path d="M 84.714844 340.714844 C 65.34375 321.839844 50.789062 299.746094 41.445312 275.042969 L 55.476562 269.738281 C 64.035156 292.371094 77.394531 312.636719 95.183594 329.96875 Z M 36.5625 260.164062 C 35.164062 255.160156 33.96875 250.027344 33.015625 244.914062 L 47.765625 242.167969 C 48.636719 246.847656 49.726562 251.542969 51.007812 256.125 Z M 30.832031 229.417969 C 30.332031 224.261719 30.058594 219.007812 30.007812 213.796875 L 45.007812 213.660156 C 45.054688 218.4375 45.308594 223.253906 45.761719 227.976562 Z M 30.832031 229.417969 " style=" stroke:none;fill-rule:nonzero;fill:rgb(100%,100%,100%);fill-opacity:1;" />
<path d="M 405.023438 212.132812 L 390.023438 212.132812 C 390.023438 187.527344 384.675781 163.886719 374.132812 141.863281 L 387.660156 135.386719 C 399.183594 159.445312 405.023438 185.265625 405.023438 212.132812 Z M 367.378906 129.21875 C 364.964844 125.136719 362.328125 121.09375 359.546875 117.207031 L 371.75 108.480469 C 374.777344 112.714844 377.652344 117.125 380.289062 121.582031 Z M 350.707031 105.902344 C 347.625 102.289062 344.335938 98.746094 340.9375 95.375 L 351.5 84.722656 C 355.195312 88.386719 358.769531 92.238281 362.121094 96.167969 Z M 350.707031 105.902344 " style=" stroke:none;fill-rule:nonzero;fill:rgb(100%,100%,100%);fill-opacity:1;" />
<path d="M 225.011719 453.023438 L 210.011719 453.023438 L 210.011719 438.023438 L 225.011719 438.023438 Z M 225.011719 423.023438 L 210.011719 423.023438 L 210.011719 408.023438 L 225.011719 408.023438 Z M 225.011719 393.023438 L 210.011719 393.023438 L 210.011719 378.019531 L 225.011719 378.019531 Z M 225.011719 393.023438 " style=" stroke:none;fill-rule:nonzero;fill:rgb(100%,100%,100%);fill-opacity:1;" />
<path d="M 177.511719 204.511719 L 258.515625 204.511719 L 258.515625 219.511719 L 177.511719 219.511719 Z M 177.511719 204.511719 " style=" stroke:none;fill-rule:nonzero;fill:rgb(100%,100%,100%);fill-opacity:1;" />
<path d="M 177.511719 232.511719 L 258.515625 232.511719 L 258.515625 247.511719 L 177.511719 247.511719 Z M 177.511719 232.511719 " style=" stroke:none;fill-rule:nonzero;fill:rgb(100%,100%,100%);fill-opacity:1;" />
</g>
</svg>