<svg id="Layer_1" data-name="Layer 1" xmlns="http://www.w3.org/2000/svg" viewBox="0 0 401.2 512"><defs><style>.cls-1{fill:#3699ff;}.cls-2{fill:#fff;}</style></defs><title>driver-biru</title><path class="cls-1" d="M391.1,200.5C391.1,354.8,200.5,502,200.5,502S10,354.8,10,200.5C10,95.3,95.3,10,200.6,10A190.45,190.45,0,0,1,391.1,200.5Z"/><path d="M200.6,512a9.61,9.61,0,0,1-6.1-2.1c-2-1.5-49-38.1-96.8-94.3-28.2-33.2-50.6-66.3-66.8-98.4C10.4,276.5,0,237.2,0,200.5,0,89.9,90,0,200.6,0S401.2,89.9,401.2,200.5c0,36.8-10.4,76-30.8,116.7-16.2,32.1-38.6,65.2-66.8,98.4-47.8,56.3-94.8,92.8-96.8,94.3A10.31,10.31,0,0,1,200.6,512Zm0-492C101,20,20,101,20,200.5c0,76.7,50.5,152.3,92.9,202.2a723,723,0,0,0,87.6,86.5,727.94,727.94,0,0,0,87.9-86.8c42.3-49.8,92.7-125.3,92.7-201.9C381.1,101,300.1,20,200.6,20Z"/><path class="cls-2" d="M343.9,201.9A143.35,143.35,0,1,0,200.5,345.2h.1A143.29,143.29,0,0,0,343.9,201.9Z"/><path d="M200.6,355.2c-84.6,0-153.4-68.8-153.4-153.3S116,48.6,200.6,48.6a153.47,153.47,0,0,1,77.9,21.2A10,10,0,0,1,268.3,87a133.26,133.26,0,0,0-67.7-18.5c-73.5,0-133.4,59.8-133.4,133.3S127,335.2,200.6,335.2,334,275.4,334,201.9a132.61,132.61,0,0,0-11.6-54.4,10,10,0,0,1,18.2-8.2,151.72,151.72,0,0,1,13.3,62.6C353.9,286.4,285.1,355.2,200.6,355.2Z"/><path d="M308.5,117.6a13.55,13.55,0,0,1-2-.2,7,7,0,0,1-1.9-.6,9.15,9.15,0,0,1-1.7-.9,9.34,9.34,0,0,1-1.5-1.3,7.89,7.89,0,0,1-1.2-1.5,5.56,5.56,0,0,1-.9-1.7c-.2-.6-.4-1.2-.6-1.9a10.1,10.1,0,0,1,0-4,7,7,0,0,1,.6-1.9,9.15,9.15,0,0,1,.9-1.7c.4-.5.8-1.1,1.2-1.5a9.06,9.06,0,0,1,1.6-1.1,5.56,5.56,0,0,1,1.7-.9,10.56,10.56,0,0,1,1.9-.6,8.56,8.56,0,0,1,3.9,0,7,7,0,0,1,1.9.6,10,10,0,0,1,3.3,2.2,7.89,7.89,0,0,1,1.2,1.5,5.56,5.56,0,0,1,.9,1.7,10.56,10.56,0,0,1,.6,1.9,10.1,10.1,0,0,1,0,4,7,7,0,0,1-.6,1.9c-.3.6-.6,1.2-.9,1.7s-.8,1.1-1.2,1.5a17.38,17.38,0,0,1-1.5,1.3,5.56,5.56,0,0,1-1.7.9,10.56,10.56,0,0,1-1.9.6A14.72,14.72,0,0,1,308.5,117.6Z"/><path d="M306.2,512H94.9a10,10,0,1,1,0-20H306.3a10,10,0,1,1-.1,20Z"/><path d="M200.6,438.5a10,10,0,0,1-10-10V390.2a10,10,0,0,1,20,0v38.3A10.09,10.09,0,0,1,200.6,438.5Z"/><path d="M281.4,252.4h0c-6.6-38.8-53.1-51.5-59.3-52.9a35.88,35.88,0,0,1-44.1,0c-6.2,1.4-51.7,13.9-58.3,52.9h0c-3.4,16.3-2.4,30.2,6,33,5,1.6,13.1-.4,21.9-3.2.2,0,.2,0,.4-.2h.2a13.21,13.21,0,0,0,9.1-12.5v-.6a13.09,13.09,0,0,0-6.8-11.5A52.32,52.32,0,0,1,200.4,222a53.35,53.35,0,0,1,50.1,35.6,13.76,13.76,0,0,0-6.8,11.5v.6a13.51,13.51,0,0,0,9.4,12.7h0c8.9,2.6,16.9,4.8,21.7,3.2C283.4,283,284.8,268.7,281.4,252.4Z"/><ellipse cx="200.7" cy="152.4" rx="43.2" ry="45.3"/><path d="M214.2,267.1a16,16,0,0,1,2.2,8,15.26,15.26,0,0,1-3.2,9.4,164.21,164.21,0,0,0,27.9-3.8,54.62,54.62,0,0,0,.4-5.8,41,41,0,0,0-9-25.6Z"/><path d="M186.8,267.1l-18.1-17.7a39.42,39.42,0,0,0-9.1,25.7,56.5,56.5,0,0,0,.4,5.8,164,164,0,0,0,27.8,3.6,15.91,15.91,0,0,1-3.2-9.4A15.07,15.07,0,0,1,186.8,267.1Z"/><path d="M200.5,267.1a8,8,0,1,0,7.9,7.9v-.1A8,8,0,0,0,200.5,267.1Z"/><path d="M200.5,234.1a39.86,39.86,0,0,0-26.4,9.7l18.3,17.7a16.78,16.78,0,0,1,8.2-2.2,15.49,15.49,0,0,1,8.4,2.4L227.3,244A42.59,42.59,0,0,0,200.5,234.1Z"/></svg>