<svg xmlns="http://www.w3.org/2000/svg" viewBox="0 0 401.11 512"><defs><style>.cls-1{fill:#ff5d5d;}.cls-2{fill:#fff;}</style></defs><title>Asset 4</title><g id="Layer_2" data-name="Layer 2"><g id="Layer_1-2" data-name="Layer 1"><path class="cls-1" d="M391.11,200.47C391.11,354.78,200.55,502,200.55,502S10,354.78,10,200.47C10,95.28,95.31,10,200.55,10S391.11,95.28,391.11,200.47Z"/><path d="M200.55,512a10,10,0,0,1-6.11-2.09c-2-1.52-49-38.09-96.79-94.34C69.48,382.4,47,349.3,30.84,317.18,10.38,276.51,0,237.24,0,200.47,0,89.93,90,0,200.55,0S401.11,89.93,401.11,200.47c0,36.77-10.38,76-30.84,116.71-16.16,32.12-38.64,65.22-66.82,98.39-47.77,56.25-94.81,92.81-96.78,94.34A10,10,0,0,1,200.55,512Zm0-492C101,20,20,101,20,200.47c0,76.67,50.52,152.26,92.9,202.16a725.79,725.79,0,0,0,87.65,86.53,726.88,726.88,0,0,0,87.9-86.82c42.27-49.84,92.66-125.3,92.66-201.87C381.11,101,300.11,20,200.55,20Z"/><path class="cls-2" d="M343.91,201.9A143.36,143.36,0,1,0,200.55,345.2,143.33,143.33,0,0,0,343.91,201.9Z"/><path d="M200.55,355.2C116,355.2,47.19,286.43,47.19,201.9S116,48.6,200.55,48.6a153.31,153.31,0,0,1,77.9,21.22,10,10,0,1,1-10.17,17.23A133.21,133.21,0,0,0,200.55,68.6C127,68.6,67.19,128.4,67.19,201.9S127,335.2,200.55,335.2s133.36-59.8,133.36-133.3a132.22,132.22,0,0,0-11.57-54.4,10,10,0,0,1,18.26-8.17,152.17,152.17,0,0,1,13.31,62.57C353.91,286.43,285.12,355.2,200.55,355.2Z"/><path d="M308.52,117.62a9.94,9.94,0,0,1-2-.19,10.13,10.13,0,0,1-1.87-.58,10.58,10.58,0,0,1-1.73-.91,11.35,11.35,0,0,1-1.52-1.25,9.57,9.57,0,0,1-1.24-1.52,10.15,10.15,0,0,1-.92-1.72,10.58,10.58,0,0,1-.57-1.87,10.84,10.84,0,0,1-.19-2,10.65,10.65,0,0,1,.19-2,10.1,10.1,0,0,1,.57-1.87,9.87,9.87,0,0,1,.92-1.73,9.57,9.57,0,0,1,1.24-1.52A10,10,0,0,1,303,99.31a11.06,11.06,0,0,1,1.73-.92,10.1,10.1,0,0,1,1.87-.57,9.9,9.9,0,0,1,3.91,0,10.1,10.1,0,0,1,1.87.57,10,10,0,0,1,3.25,2.16,9.57,9.57,0,0,1,1.24,1.52,9.87,9.87,0,0,1,.92,1.73,10.1,10.1,0,0,1,.57,1.87,9.85,9.85,0,0,1,.2,2,10,10,0,0,1-.2,2,10.58,10.58,0,0,1-.57,1.87,10.15,10.15,0,0,1-.92,1.72,9.57,9.57,0,0,1-1.24,1.52,11.35,11.35,0,0,1-1.52,1.25,10.58,10.58,0,0,1-1.73.91,10.13,10.13,0,0,1-1.87.58A9.91,9.91,0,0,1,308.52,117.62Z"/><path d="M306.24,512H94.86a10,10,0,0,1,0-20H306.24a10,10,0,0,1,0,20Z"/><path d="M200.55,438.45a10,10,0,0,1-10-10V390.13a10,10,0,0,1,20,0v38.32A10,10,0,0,1,200.55,438.45Z"/><path d="M154.22,109.22c0,.93,5,24.4,5.53,26.12l.28.83h81.5l.17-.95c.11-.5,1.28-6.51,2.61-13.31s2.4-12.46,2.32-12.59S154.22,109.05,154.22,109.22Z"/><path d="M151.87,152.89l-8.26,9.18,7.41.07,7.41.05.15.95A93.57,93.57,0,0,0,162,175.46a42.77,42.77,0,0,0,20.47,22.89,50.4,50.4,0,0,0,9.58,3.23,45.93,45.93,0,0,0,22.47-1.33,41.27,41.27,0,0,0,14.09-8.73,47.78,47.78,0,0,0,12.91-23.75,50.63,50.63,0,0,0-1.25-23.29l-.28-.8-39.93,0h-40Z"/><path d="M221.09,204c-.58.33-2,1.13-3.06,1.78a35.37,35.37,0,0,1-37.16-.78c-2.52-1.62-3.27-1.65-8-.17-14.47,4.5-27.68,12.28-36.79,21.67A52.3,52.3,0,0,0,125.72,241c-2.8,5.63-4.38,11.14-5.68,19.87-.87,5.83-1,13.26-.27,16.64,1.3,6,3.73,9.28,7.6,10.41,3.66,1.05,11.27,0,19.35-2.68,4.5-1.47,5.65-2.07,7.5-3.95C157,278.55,158,276,158,271.77a12,12,0,0,0-1.95-7.13c-.88-1.35-3.86-4.36-4.33-4.36s1-3.4,2.42-6.35a52.06,52.06,0,0,1,30-25.9,52.58,52.58,0,0,1,61.16,23.22c2.18,3.68,4,7.58,4,8.53,0,.58-.4,1.13-2,2.63A12.48,12.48,0,0,0,243.46,275c.85,4.2,3,7.13,6.45,8.81,3.08,1.5,13.06,4,18.72,4.75,8.88,1.13,13.66-6.31,13.14-20.39a97.09,97.09,0,0,0-2.06-15.24c-2.95-12.56-9.63-22.72-20.69-31.61-8.78-7-18.62-12.21-30.85-16.16C222.59,203.36,222.41,203.33,221.09,204Z"/><path d="M196.84,237.51a43.54,43.54,0,0,0-14,3.83,49.55,49.55,0,0,0-7.21,4.78l-1,.88,1.75,1.77c3.63,3.68,15.66,15.14,16,15.22a11.57,11.57,0,0,0,2.68-.73,15.65,15.65,0,0,1,12.11.53l1.68.75,6.36-6.21c3.5-3.4,7.5-7.28,8.9-8.61l2.56-2.45-1-.87a43,43,0,0,0-7.06-4.73A41.19,41.19,0,0,0,196.84,237.51Z"/><path d="M223.21,261.34c-6.28,6.73-8.65,9.4-8.53,9.7s.48,1.16.8,2.13c1.25,3.53.7,8.26-1.45,12.11a3.87,3.87,0,0,0-.63,1.5c.53.5,25.9-3,26.73-3.67.5-.43.77-7,.42-10.19a40.09,40.09,0,0,0-7.05-18.72C232.67,253,232,252,232,252S228,256.21,223.21,261.34Z"/><path d="M168.16,253.7a40.6,40.6,0,0,0-7.23,15.94,30.62,30.62,0,0,0-.55,7.53c0,5.53.05,5.94,1.4,6.36.85.28,11.76,2,16.72,2.63,3.68.47,9.36.77,9.21.5-2.38-4.91-2.81-6.31-2.78-9.49a10.44,10.44,0,0,1,.67-4.12c.38-1,.73-2.06.8-2.28s-2.42-3.15-8.3-9.46c-4.63-4.95-8.54-9-8.64-9A7.19,7.19,0,0,0,168.16,253.7Z"/><path d="M198.39,270.12a7.14,7.14,0,0,0-3.55,2.25,6.89,6.89,0,0,0-2.08,4,8.41,8.41,0,0,0,.68,4.8,10.59,10.59,0,0,0,3.7,3.61,5.63,5.63,0,0,0,3.38.67,5.77,5.77,0,0,0,3.4-.67,8.13,8.13,0,0,0,4.4-6.93,7.33,7.33,0,0,0-2.47-5.83A8.11,8.11,0,0,0,198.39,270.12Z"/></g></g></svg>