<svg width="41" height="80" viewBox="0 0 41 80" fill="none" xmlns="http://www.w3.org/2000/svg">
<path d="M31.1971 0H10.7875C5.37744 0 0.993164 5.89726 0.993164 11.1992V70.3997C0.993164 75.6999 5.37744 80 10.7875 80H31.1971C36.6054 80 40.9932 75.7016 40.9932 70.3997V11.1992C40.9897 5.89726 36.6054 0 31.1971 0ZM39.2766 24.1334V43.9752L34.54 44.5722V36.3973L39.2766 24.1334ZM36.7911 18.3245C35.0277 24.9583 32.9397 32.7998 32.9397 32.7998H9.04315L5.18652 18.3245C5.18825 18.3245 20.6061 13.191 36.7911 18.3245ZM7.49841 36.9331V44.5739L2.76006 43.9803V24.6675L7.49841 36.9331ZM2.76006 64.5314V46.911L7.49841 47.4945V61.4356L2.76006 64.5314ZM5.46249 69.539L9.31218 63.8646H33.2139L37.0654 69.539H5.46249ZM34.54 60.9032V47.5132L39.2766 46.9093V64.0007L34.54 60.9032Z" fill="#050505"/>
</svg>
