<svg id="Layer_1" data-name="Layer 1" xmlns="http://www.w3.org/2000/svg" viewBox="0 0 401.11 512"><defs><style>.cls-1{fill:#3699ff;}.cls-2{fill:#fff;}</style></defs><title>trip-A</title><path class="cls-1" d="M446.11,200.47C446.11,354.78,255.55,502,255.55,502S65,354.78,65,200.47C65,95.28,150.31,10,255.55,10S446.11,95.28,446.11,200.47Z" transform="translate(-55)"/><path d="M255.55,512a10,10,0,0,1-6.11-2.09c-2-1.52-49-38.09-96.79-94.34C124.48,382.4,102,349.3,85.84,317.18,65.38,276.51,55,237.24,55,200.47,55,89.93,145,0,255.55,0S456.11,89.93,456.11,200.47c0,36.77-10.38,76-30.84,116.71-16.16,32.12-38.64,65.22-66.82,98.39-47.77,56.25-94.81,92.81-96.78,94.34A10,10,0,0,1,255.55,512Zm0-492C156,20,75,101,75,200.47c0,76.67,50.52,152.26,92.9,202.16a725.79,725.79,0,0,0,87.65,86.53,726.88,726.88,0,0,0,87.9-86.82c42.27-49.84,92.66-125.3,92.66-201.87C436.11,101,355.11,20,255.55,20Z" transform="translate(-55)"/><path class="cls-2" d="M398.91,201.9A143.36,143.36,0,1,0,255.55,345.2,143.33,143.33,0,0,0,398.91,201.9Z" transform="translate(-55)"/><path d="M255.55,355.2c-84.56,0-153.36-68.77-153.36-153.3S171,48.6,255.55,48.6a153.31,153.31,0,0,1,77.9,21.22,10,10,0,0,1-10.17,17.23A133.21,133.21,0,0,0,255.55,68.6c-73.53,0-133.36,59.8-133.36,133.3S182,335.2,255.55,335.2s133.36-59.8,133.36-133.3a132.22,132.22,0,0,0-11.57-54.4,10,10,0,0,1,18.26-8.17,152.17,152.17,0,0,1,13.31,62.57C408.91,286.43,340.12,355.2,255.55,355.2Z" transform="translate(-55)"/><path d="M363.52,117.62a9.94,9.94,0,0,1-2-.19,10.13,10.13,0,0,1-1.87-.58,10.58,10.58,0,0,1-1.73-.91,11.35,11.35,0,0,1-1.52-1.25,9.57,9.57,0,0,1-1.24-1.52,10.15,10.15,0,0,1-.92-1.72,10.58,10.58,0,0,1-.57-1.87,10.84,10.84,0,0,1-.19-2,10.65,10.65,0,0,1,.19-2,10.1,10.1,0,0,1,.57-1.87,9.87,9.87,0,0,1,.92-1.73,9.57,9.57,0,0,1,1.24-1.52A10,10,0,0,1,358,99.31a11.06,11.06,0,0,1,1.73-.92,10.1,10.1,0,0,1,1.87-.57,9.9,9.9,0,0,1,3.91,0,10.1,10.1,0,0,1,1.87.57,10,10,0,0,1,3.25,2.16,9.57,9.57,0,0,1,1.24,1.52,9.87,9.87,0,0,1,.92,1.73,10.1,10.1,0,0,1,.57,1.87,9.85,9.85,0,0,1,.2,2,10,10,0,0,1-.2,2,10.58,10.58,0,0,1-.57,1.87,10.15,10.15,0,0,1-.92,1.72,9.57,9.57,0,0,1-1.24,1.52,11.35,11.35,0,0,1-1.52,1.25,10.58,10.58,0,0,1-1.73.91,10.13,10.13,0,0,1-1.87.58A9.91,9.91,0,0,1,363.52,117.62Z" transform="translate(-55)"/><path d="M361.24,512H149.86a10,10,0,0,1,0-20H361.24a10,10,0,0,1,0,20Z" transform="translate(-55)"/><path d="M255.55,438.45a10,10,0,0,1-10-10V390.13a10,10,0,0,1,20,0v38.32A10,10,0,0,1,255.55,438.45Z" transform="translate(-55)"/><path d="M289.06,245.65l-6.77-17.79H224.67L217.9,246q-4,10.64-6.77,14.36T202,264.11a13.47,13.47,0,0,1-9.57-4,12.14,12.14,0,0,1-4.16-9,19.93,19.93,0,0,1,1-6q1-3.09,3.19-8.6l36.25-92q1.55-4,3.72-9.52a47.74,47.74,0,0,1,4.65-9.24,18.77,18.77,0,0,1,6.47-5.94,19.82,19.82,0,0,1,9.91-2.27,20,20,0,0,1,10,2.27,19.25,19.25,0,0,1,6.48,5.85,41.1,41.1,0,0,1,4.15,7.68q1.69,4.11,4.31,11l37,91.45q4.35,10.46,4.35,15.18a12.59,12.59,0,0,1-4.1,9,13.53,13.53,0,0,1-9.91,4.11,12.84,12.84,0,0,1-5.81-1.21,11.91,11.91,0,0,1-4.06-3.28,31,31,0,0,1-3.53-6.38Q290.42,248.94,289.06,245.65ZM232.21,206.3h42.34l-21.36-58.49Z" transform="translate(-55)"/></svg>