<svg id="Layer_1" data-name="Layer 1" xmlns="http://www.w3.org/2000/svg" viewBox="0 0 401.11 512"><defs><style>.cls-1{fill:#3699ff;}.cls-2{fill:#fff;}</style></defs><title>trip-B</title><path class="cls-1" d="M446.11,200.47C446.11,354.78,255.55,502,255.55,502S65,354.78,65,200.47C65,95.28,150.31,10,255.55,10S446.11,95.28,446.11,200.47Z" transform="translate(-55)"/><path d="M255.55,512a10,10,0,0,1-6.11-2.09c-2-1.52-49-38.09-96.79-94.34C124.48,382.4,102,349.3,85.84,317.18,65.38,276.51,55,237.24,55,200.47,55,89.93,145,0,255.55,0S456.11,89.93,456.11,200.47c0,36.77-10.38,76-30.84,116.71-16.16,32.12-38.64,65.22-66.82,98.39-47.77,56.25-94.81,92.81-96.78,94.34A10,10,0,0,1,255.55,512Zm0-492C156,20,75,101,75,200.47c0,76.67,50.52,152.26,92.9,202.16a725.79,725.79,0,0,0,87.65,86.53,726.88,726.88,0,0,0,87.9-86.82c42.27-49.84,92.66-125.3,92.66-201.87C436.11,101,355.11,20,255.55,20Z" transform="translate(-55)"/><path class="cls-2" d="M398.91,201.9A143.36,143.36,0,1,0,255.55,345.2,143.33,143.33,0,0,0,398.91,201.9Z" transform="translate(-55)"/><path d="M255.55,355.2c-84.56,0-153.36-68.77-153.36-153.3S171,48.6,255.55,48.6a153.31,153.31,0,0,1,77.9,21.22,10,10,0,0,1-10.17,17.23A133.21,133.21,0,0,0,255.55,68.6c-73.53,0-133.36,59.8-133.36,133.3S182,335.2,255.55,335.2s133.36-59.8,133.36-133.3a132.22,132.22,0,0,0-11.57-54.4,10,10,0,0,1,18.26-8.17,152.17,152.17,0,0,1,13.31,62.57C408.91,286.43,340.12,355.2,255.55,355.2Z" transform="translate(-55)"/><path d="M363.52,117.62a9.94,9.94,0,0,1-2-.19,10.13,10.13,0,0,1-1.87-.58,10.58,10.58,0,0,1-1.73-.91,11.35,11.35,0,0,1-1.52-1.25,9.57,9.57,0,0,1-1.24-1.52,10.15,10.15,0,0,1-.92-1.72,10.58,10.58,0,0,1-.57-1.87,10.84,10.84,0,0,1-.19-2,10.65,10.65,0,0,1,.19-2,10.1,10.1,0,0,1,.57-1.87,9.87,9.87,0,0,1,.92-1.73,9.57,9.57,0,0,1,1.24-1.52A10,10,0,0,1,358,99.31a11.06,11.06,0,0,1,1.73-.92,10.1,10.1,0,0,1,1.87-.57,9.9,9.9,0,0,1,3.91,0,10.1,10.1,0,0,1,1.87.57,10,10,0,0,1,3.25,2.16,9.57,9.57,0,0,1,1.24,1.52,9.87,9.87,0,0,1,.92,1.73,10.1,10.1,0,0,1,.57,1.87,9.85,9.85,0,0,1,.2,2,10,10,0,0,1-.2,2,10.58,10.58,0,0,1-.57,1.87,10.15,10.15,0,0,1-.92,1.72,9.57,9.57,0,0,1-1.24,1.52,11.35,11.35,0,0,1-1.52,1.25,10.58,10.58,0,0,1-1.73.91,10.13,10.13,0,0,1-1.87.58A9.91,9.91,0,0,1,363.52,117.62Z" transform="translate(-55)"/><path d="M361.24,512H149.86a10,10,0,0,1,0-20H361.24a10,10,0,0,1,0,20Z" transform="translate(-55)"/><path d="M255.55,438.45a10,10,0,0,1-10-10V390.13a10,10,0,0,1,20,0v38.32A10,10,0,0,1,255.55,438.45Z" transform="translate(-55)"/><path d="M258.89,265.69H215.58q-9.37,0-13.39-4.2t-4-13.39V141.56q0-9.37,4.11-13.49T215.58,124H261.5a107,107,0,0,1,17.6,1.26,37.62,37.62,0,0,1,13.34,4.83,34.94,34.94,0,0,1,8.89,7.59,33.43,33.43,0,0,1,5.9,10.15,33.87,33.87,0,0,1,2,11.75q0,21.27-21.27,31.13,27.94,8.9,27.94,34.61a38.92,38.92,0,0,1-6.09,21.42,36.49,36.49,0,0,1-16.43,14.06,58.17,58.17,0,0,1-14.89,3.82A152,152,0,0,1,258.89,265.69Zm-32-120.17v36.64h26.3q10.72,0,16.58-2a15.8,15.8,0,0,0,8.94-7.73,17.46,17.46,0,0,0,2.42-9.09q0-10.73-7.64-14.26t-23.3-3.53Zm29.88,57.24H226.89v41.37h30.84q29.1,0,29.1-21,0-10.74-7.54-15.57T256.77,202.76Z" transform="translate(-55)"/></svg>