<svg id="Layer_1" data-name="Layer 1" xmlns="http://www.w3.org/2000/svg" viewBox="0 0 401.11 512"><defs><style>.cls-1{fill:#ff5d5d;}.cls-2{fill:#fff;}</style></defs><title>trip-A-merah</title><path class="cls-1" d="M391.11,200.47C391.11,354.78,200.55,502,200.55,502S10,354.78,10,200.47C10,95.28,95.31,10,200.55,10S391.11,95.28,391.11,200.47Z"/><path d="M200.55,512a10,10,0,0,1-6.11-2.09c-2-1.52-49-38.09-96.79-94.34C69.48,382.4,47,349.3,30.84,317.18,10.38,276.51,0,237.24,0,200.47,0,89.93,90,0,200.55,0S401.11,89.93,401.11,200.47c0,36.77-10.38,76-30.84,116.71-16.16,32.12-38.64,65.22-66.82,98.39-47.77,56.25-94.81,92.81-96.78,94.34A10,10,0,0,1,200.55,512Zm0-492C101,20,20,101,20,200.47c0,76.67,50.52,152.26,92.9,202.16a725.84,725.84,0,0,0,87.65,86.53,726.66,726.66,0,0,0,87.9-86.82c42.27-49.84,92.66-125.3,92.66-201.87C381.11,101,300.11,20,200.55,20Z"/><path class="cls-2" d="M343.91,201.9A143.36,143.36,0,1,0,200.49,345.2h.06A143.33,143.33,0,0,0,343.91,201.9Z"/><path d="M200.55,355.2C116,355.2,47.19,286.43,47.19,201.9S116,48.6,200.55,48.6a153.29,153.29,0,0,1,77.9,21.22,10,10,0,1,1-10.17,17.23A133.12,133.12,0,0,0,200.55,68.6C127,68.6,67.19,128.4,67.19,201.9S127,335.2,200.55,335.2s133.36-59.8,133.36-133.3a132.28,132.28,0,0,0-11.57-54.4,10,10,0,0,1,18.26-8.17,152.14,152.14,0,0,1,13.31,62.57C353.91,286.43,285.12,355.2,200.55,355.2Z"/><path d="M308.52,117.62a10.34,10.34,0,0,1-2-.19,10.13,10.13,0,0,1-1.87-.58,10.58,10.58,0,0,1-1.73-.91,11.35,11.35,0,0,1-1.52-1.25,9.57,9.57,0,0,1-1.24-1.52,10,10,0,0,1-1.49-3.59,10.76,10.76,0,0,1,0-4,10.1,10.1,0,0,1,.57-1.87,9.87,9.87,0,0,1,.92-1.73A7.36,7.36,0,0,1,303,99.31a10.63,10.63,0,0,1,1.73-.92,10.1,10.1,0,0,1,1.87-.57,9.9,9.9,0,0,1,3.91,0,10.1,10.1,0,0,1,1.87.57,10,10,0,0,1,3.25,2.16,9.57,9.57,0,0,1,1.24,1.52,9.87,9.87,0,0,1,.92,1.73,10.1,10.1,0,0,1,.57,1.87,10.09,10.09,0,0,1-1.49,7.59,9.57,9.57,0,0,1-1.24,1.52,11.35,11.35,0,0,1-1.52,1.25,10.58,10.58,0,0,1-1.73.91,7.89,7.89,0,0,1-3.86.68Z"/><path d="M306.24,512H94.86a10,10,0,0,1,0-20H306.24a10,10,0,0,1,0,20Z"/><path d="M200.55,438.45a10,10,0,0,1-10-10V390.13a10,10,0,0,1,20,0v38.32A10,10,0,0,1,200.55,438.45Z"/><path d="M234.06,245.65l-6.77-17.79H169.67L162.9,246q-4,10.63-6.77,14.36T147,264.11a13.45,13.45,0,0,1-9.57-4,12.14,12.14,0,0,1-4.16-9,19.76,19.76,0,0,1,1-6q1-3.09,3.19-8.6l36.25-92q1.54-4,3.72-9.52a47.61,47.61,0,0,1,4.65-9.24,18.8,18.8,0,0,1,6.47-5.94,19.76,19.76,0,0,1,9.91-2.27,20,20,0,0,1,10,2.27,19.24,19.24,0,0,1,6.48,5.85,41.56,41.56,0,0,1,4.15,7.68q1.69,4.11,4.31,11l37,91.45q4.35,10.46,4.35,15.18a12.59,12.59,0,0,1-4.1,9,13.54,13.54,0,0,1-9.91,4.11,12.83,12.83,0,0,1-5.81-1.21,11.87,11.87,0,0,1-4.06-3.28,31,31,0,0,1-3.53-6.38Q235.42,248.94,234.06,245.65ZM177.21,206.3h42.34l-21.36-58.49Z"/></svg>